<svg width="705" height="336" viewBox="0 0 705 336" fill="none" xmlns="http://www.w3.org/2000/svg">
<g clip-path="url(#clip0_16_2)">
<mask id="mask0_16_2" style="mask-type:alpha" maskUnits="userSpaceOnUse" x="94" y="23" width="456" height="298">
<path d="M125.184 60.68H151.168C153.899 60.68 155.861 61.4053 157.056 62.856C158.336 64.2213 158.72 66.2693 158.208 69C157.781 71.7307 156.672 73.8213 154.88 75.272C153.173 76.6373 150.955 77.32 148.224 77.32H122.24L119.04 95.24C118.699 96.9467 118.869 98.2267 119.552 99.08C120.32 99.9333 121.557 100.36 123.264 100.36H148.224C151.04 100.36 153.003 101.043 154.112 102.408C155.221 103.773 155.52 105.864 155.008 108.68C154.581 111.496 153.557 113.587 151.936 114.952C150.315 116.317 148.096 117 145.28 117H108.8C104.448 117 101.419 115.976 99.712 113.928C98.0053 111.795 97.536 108.552 98.304 104.2L110.208 36.36C110.976 32.008 112.597 28.808 115.072 26.76C117.547 24.6267 120.96 23.56 125.312 23.56H161.792C164.608 23.56 166.571 24.2427 167.68 25.608C168.789 26.9733 169.088 29.064 168.576 31.88C168.064 34.696 166.997 36.7867 165.376 38.152C163.84 39.5173 161.664 40.2 158.848 40.2H133.888C132.011 40.2 130.603 40.6267 129.664 41.48C128.811 42.248 128.213 43.528 127.872 45.32L125.184 60.68ZM191.694 118.28C188.622 118.28 185.721 117.683 182.99 116.488C180.345 115.293 178.083 113.416 176.206 110.856C174.414 108.296 173.177 105.011 172.494 101C171.811 96.9893 171.982 92.168 173.006 86.536C174.03 80.8187 175.609 75.4427 177.742 70.408C179.961 65.3733 182.606 61.0213 185.678 57.352C188.835 53.5973 192.419 50.6533 196.43 48.52C200.526 46.3867 204.963 45.32 209.742 45.32C213.753 45.32 216.825 46.2587 218.958 48.136C220.75 49.7573 222.03 51.848 222.798 54.408C222.883 54.2373 222.969 54.024 223.054 53.768C223.993 50.952 225.443 48.8613 227.406 47.496C229.454 46.0453 231.971 45.32 234.958 45.32C237.859 45.32 239.737 46.0027 240.59 47.368C241.443 48.7333 241.401 50.8667 240.462 53.768C239.011 58.2907 237.689 62.7707 236.494 67.208C235.299 71.6453 234.275 76.168 233.422 80.776C232.654 85.2987 232.099 89.992 231.758 94.856C231.417 99.6347 231.331 104.712 231.502 110.088C231.587 112.989 231.075 115.08 229.966 116.36C228.857 117.64 226.851 118.28 223.95 118.28C220.963 118.28 218.574 117.64 216.782 116.36C215.075 114.995 214.179 112.904 214.094 110.088C214.009 108.211 213.966 106.376 213.966 104.584C213.369 105.693 212.686 106.76 211.918 107.784C209.443 111.197 206.542 113.8 203.214 115.592C199.886 117.384 196.046 118.28 191.694 118.28ZM198.862 101C200.483 101 202.147 100.573 203.854 99.72C205.646 98.8667 207.353 97.5867 208.974 95.88C210.595 94.088 212.089 91.8267 213.454 89.096C214.478 86.9627 215.289 84.4453 215.886 81.544C215.971 81.288 216.057 80.9893 216.142 80.648L216.654 77.576C216.91 75.6987 217.123 73.992 217.294 72.456C217.379 70.408 217.209 68.6587 216.782 67.208C216.441 65.7573 215.801 64.648 214.862 63.88C213.923 63.0267 212.643 62.6 211.022 62.6C208.633 62.6 206.414 63.24 204.366 64.52C202.318 65.8 200.483 67.5067 198.862 69.64C197.326 71.7733 195.961 74.248 194.766 77.064C193.657 79.88 192.846 82.8667 192.334 86.024C191.566 90.376 191.651 93.96 192.59 96.776C193.614 99.592 195.705 101 198.862 101ZM259.356 117C255.601 117 252.956 116.104 251.42 114.312C249.884 112.52 249.457 109.832 250.14 106.248C250.481 104.2 251.121 102.365 252.06 100.744C252.999 99.1227 254.236 97.6293 255.772 96.264L286.108 69.512C287.047 68.744 287.729 68.0613 288.156 67.464C288.583 66.8667 288.839 66.3547 288.924 65.928C289.095 65.2453 288.796 64.7333 288.028 64.392C287.345 64.0507 286.236 63.88 284.7 63.88H267.164C264.348 63.88 262.385 63.1547 261.276 61.704C260.167 60.2533 259.868 58.12 260.38 55.304C260.892 52.488 261.959 50.3547 263.58 48.904C265.201 47.368 267.42 46.6 270.236 46.6H306.972C310.727 46.6 313.372 47.496 314.908 49.288C316.444 51.08 316.871 53.768 316.188 57.352C315.847 59.4 315.207 61.2347 314.268 62.856C313.329 64.4773 312.092 65.9707 310.556 67.336L280.22 94.088C279.281 94.856 278.599 95.5387 278.172 96.136C277.745 96.7333 277.489 97.2453 277.404 97.672C277.233 98.3547 277.489 98.8667 278.172 99.208C278.94 99.5493 280.092 99.72 281.628 99.72H301.852C304.668 99.72 306.631 100.445 307.74 101.896C308.849 103.347 309.148 105.48 308.636 108.296C308.124 111.112 307.057 113.288 305.436 114.824C303.815 116.275 301.596 117 298.78 117H259.356ZM367.21 117L369.77 104.072C367.551 108.595 364.735 112.093 361.322 114.568C357.994 117.043 354.282 118.28 350.186 118.28C346.09 118.28 342.549 117.597 339.562 116.232C336.661 114.867 334.314 112.989 332.522 110.6C330.815 108.211 329.663 105.437 329.066 102.28C328.554 99.1227 328.639 95.7093 329.322 92.04L336.618 54.92C337.301 51.6773 338.538 49.288 340.33 47.752C342.122 46.1307 344.639 45.32 347.882 45.32C351.125 45.32 353.429 46.1307 354.794 47.752C356.159 49.288 356.501 51.6773 355.818 54.92L349.29 88.2C349.034 89.6507 348.906 91.1013 348.906 92.552C348.991 94.0027 349.333 95.3253 349.93 96.52C350.527 97.6293 351.338 98.568 352.362 99.336C353.471 100.019 354.922 100.36 356.714 100.36C358.677 100.36 360.511 100.019 362.218 99.336C363.925 98.568 365.461 97.5867 366.826 96.392C368.191 95.1973 369.301 93.7893 370.154 92.168C371.007 90.5467 371.605 88.7973 371.946 86.92L377.706 54.92C378.303 51.6773 379.498 49.288 381.29 47.752C383.167 46.1307 385.727 45.32 388.97 45.32C392.213 45.32 394.474 46.1307 395.754 47.752C397.119 49.288 397.503 51.6773 396.906 54.92L385.77 117C384.746 122.547 383.295 127.453 381.418 131.72C379.626 135.987 377.151 139.571 373.994 142.472C370.922 145.459 367.082 147.72 362.474 149.256C357.866 150.792 352.319 151.56 345.834 151.56C343.274 151.56 340.842 151.304 338.538 150.792C336.234 150.365 334.058 149.683 332.01 148.744C329.962 147.805 328.085 146.611 326.378 145.16C324.671 143.795 323.135 142.131 321.77 140.168C321.087 139.229 320.661 138.205 320.49 137.096C320.234 135.987 320.191 134.835 320.362 133.64C320.533 132.445 321.002 131.251 321.77 130.056C322.453 128.947 323.306 127.923 324.33 126.984C325.354 126.045 326.506 125.277 327.786 124.68C329.066 124.083 330.389 123.784 331.754 123.784C332.607 123.784 333.418 123.912 334.186 124.168C335.039 124.424 335.765 124.893 336.362 125.576C337.215 126.6 338.154 127.624 339.178 128.648C340.202 129.672 341.311 130.568 342.506 131.336C343.786 132.189 345.151 132.872 346.602 133.384C348.138 133.981 349.759 134.28 351.466 134.28C353.429 134.28 355.221 133.896 356.842 133.128C358.549 132.445 360.085 131.336 361.45 129.8C362.815 128.349 363.967 126.557 364.906 124.424C365.93 122.291 366.698 119.816 367.21 117ZM105.344 286C101.504 286 98.7733 285.061 97.152 283.184C95.616 281.221 95.1893 278.32 95.872 274.48L108.288 204.08C108.971 200.24 110.421 197.381 112.64 195.504C114.944 193.541 118.016 192.56 121.856 192.56H136.832C144.171 192.56 150.059 193.755 154.496 196.144C158.933 198.533 162.176 201.819 164.224 206C166.357 210.181 167.509 215.131 167.68 220.848C167.851 226.565 167.339 232.752 166.144 239.408C165.035 245.893 163.413 251.995 161.28 257.712C159.147 263.344 156.288 268.251 152.704 272.432C149.12 276.613 144.683 279.941 139.392 282.416C134.101 284.805 127.744 286 120.32 286H105.344ZM116.992 263.6C116.651 265.307 116.821 266.587 117.504 267.44C118.272 268.293 119.509 268.72 121.216 268.72H123.392C127.488 268.72 130.944 267.824 133.76 266.032C136.661 264.24 139.051 261.936 140.928 259.12C142.805 256.219 144.299 252.976 145.408 249.392C146.517 245.808 147.371 242.224 147.968 238.64C148.565 235.312 148.949 231.941 149.12 228.528C149.291 225.029 148.949 221.915 148.096 219.184C147.243 216.453 145.707 214.235 143.488 212.528C141.269 210.736 138.027 209.84 133.76 209.84H131.584C129.877 209.84 128.512 210.267 127.488 211.12C126.549 211.973 125.909 213.253 125.568 214.96L116.992 263.6ZM189.518 239.664C186.873 240.347 184.739 240.091 183.118 238.896C181.497 237.616 180.345 235.611 179.662 232.88C179.065 230.32 179.235 228.101 180.174 226.224C181.198 224.261 183.075 222.939 185.806 222.256L204.622 217.52C207.438 216.837 209.955 216.752 212.174 217.264C214.393 217.691 216.185 218.587 217.55 219.952C218.915 221.317 219.811 223.067 220.238 225.2C220.665 227.333 220.537 229.68 219.854 232.24L212.43 261.168C211.918 262.96 211.662 264.453 211.662 265.648C211.662 266.757 211.833 267.653 212.174 268.336C212.601 268.933 213.155 269.36 213.838 269.616C214.521 269.872 215.289 270 216.142 270C217.849 270 219.385 269.488 220.75 268.464C222.115 267.44 223.694 265.947 225.486 263.984C227.193 262.021 228.899 261.04 230.606 261.04C232.313 260.955 234.105 261.68 235.982 263.216C237.945 264.923 238.926 266.587 238.926 268.208C239.011 269.829 238.371 271.621 237.006 273.584C235.214 276.059 233.422 278.192 231.63 279.984C229.838 281.691 227.875 283.099 225.742 284.208C223.609 285.232 221.219 286 218.574 286.512C215.929 287.024 212.942 287.28 209.614 287.28C206.286 287.28 203.385 286.768 200.91 285.744C198.521 284.635 196.601 283.099 195.15 281.136C193.785 279.088 192.931 276.656 192.59 273.84C192.249 271.024 192.547 267.824 193.486 264.24L199.63 241.072C199.971 239.963 199.929 239.109 199.502 238.512C199.075 237.829 198.307 237.616 197.198 237.872L189.518 239.664ZM217.038 207.024C213.539 207.024 210.894 206.128 209.102 204.336C207.395 202.544 206.798 200.112 207.31 197.04C207.822 193.968 209.273 191.536 211.662 189.744C214.137 187.952 217.123 187.056 220.622 187.056C224.121 187.056 226.723 187.952 228.43 189.744C230.222 191.536 230.862 193.968 230.35 197.04C229.838 200.112 228.345 202.544 225.87 204.336C223.481 206.128 220.537 207.024 217.038 207.024ZM358.25 287.28C354.751 287.28 351.765 286.725 349.29 285.616C346.901 284.421 344.981 282.8 343.53 280.752C342.677 279.557 341.951 278.192 341.354 276.656C333.93 280.24 326.506 283.184 319.082 285.488C316.863 286.171 314.815 286.64 312.938 286.896C310.975 287.152 308.927 287.28 306.794 287.28C304.149 287.28 301.589 286.64 299.114 285.36C296.639 284.08 294.847 281.861 293.738 278.704C292.885 276.4 292.287 273.968 291.946 271.408C290.922 273.371 289.813 275.163 288.618 276.784C286.143 280.197 283.242 282.8 279.914 284.592C276.586 286.384 272.746 287.28 268.394 287.28C265.322 287.28 262.463 286.683 259.818 285.488C257.087 284.293 254.826 282.416 253.034 279.856C251.157 277.296 249.877 274.011 249.194 270C248.511 265.989 248.682 261.168 249.706 255.536C250.73 249.819 252.309 244.443 254.442 239.408C256.575 234.373 259.221 230.021 262.378 226.352C265.535 222.597 269.162 219.653 273.258 217.52C277.269 215.387 281.663 214.32 286.442 214.32C290.453 214.32 293.525 215.259 295.658 217.136C297.45 218.757 298.73 220.848 299.498 223.408C299.583 223.237 299.669 223.024 299.754 222.768C300.693 219.952 302.186 217.861 304.234 216.496C306.197 215.045 308.671 214.32 311.658 214.32C314.559 214.32 316.437 215.003 317.29 216.368C318.143 217.733 318.101 219.867 317.162 222.768C315.882 226.864 314.687 231.045 313.578 235.312C312.469 239.493 311.573 243.461 310.89 247.216C310.122 250.885 309.653 254.213 309.482 257.2C309.311 260.187 309.525 262.533 310.122 264.24C310.549 265.605 311.274 266.587 312.298 267.184C313.322 267.781 314.517 268.08 315.882 268.08C316.821 268.08 317.887 267.952 319.082 267.696C320.277 267.44 321.471 267.056 322.666 266.544C327.957 264.069 333.461 261.253 339.178 258.096C339.69 257.84 340.202 257.541 340.714 257.2C341.567 248.411 342.677 240.432 344.042 233.264C345.749 224.219 348.053 216.581 350.954 210.352C353.941 204.123 357.567 199.387 361.834 196.144C366.186 192.901 371.349 191.28 377.322 191.28C381.247 191.28 384.405 192.048 386.794 193.584C389.183 195.12 390.975 197.125 392.17 199.6C393.365 202.075 394.047 204.891 394.218 208.048C394.389 211.12 394.133 214.235 393.45 217.392C391.743 226.352 388.415 234.501 383.466 241.84C378.517 249.093 372.629 255.536 365.802 261.168C363.413 263.045 360.981 264.88 358.506 266.672C358.591 266.757 358.677 266.885 358.762 267.056C359.103 267.824 359.573 268.464 360.17 268.976C360.767 269.403 361.45 269.616 362.218 269.616C363.839 269.616 365.333 269.104 366.698 268.08C368.149 267.056 369.77 265.691 371.562 263.984C373.439 262.192 375.274 261.296 377.066 261.296C378.858 261.211 380.693 261.936 382.57 263.472C384.447 265.008 385.386 266.843 385.386 268.976C385.386 271.109 384.618 272.987 383.082 274.608C379.071 278.789 375.146 281.947 371.306 284.08C367.466 286.213 363.114 287.28 358.25 287.28ZM275.562 270C277.183 270 278.89 269.573 280.682 268.72C282.389 267.867 284.053 266.587 285.674 264.88C287.295 263.088 288.789 260.827 290.154 258.096C291.178 255.877 292.031 253.232 292.714 250.16C292.97 248.88 293.183 247.557 293.354 246.192C293.61 244.485 293.823 242.907 293.994 241.456C294.079 239.408 293.951 237.659 293.61 236.208C293.183 234.757 292.501 233.648 291.562 232.88C290.623 232.027 289.343 231.6 287.722 231.6C285.333 231.6 283.114 232.24 281.066 233.52C279.018 234.8 277.226 236.507 275.69 238.64C274.069 240.773 272.703 243.248 271.594 246.064C270.399 248.88 269.546 251.867 269.034 255.024C268.266 259.376 268.394 262.96 269.418 265.776C270.357 268.592 272.405 270 275.562 270ZM359.402 243.632C362.73 240.56 365.717 237.232 368.362 233.648C372.031 228.699 374.506 223.195 375.786 217.136C375.957 216.368 376.085 215.515 376.17 214.576C376.341 213.552 376.383 212.613 376.298 211.76C376.298 210.821 376.127 210.053 375.786 209.456C375.53 208.859 375.018 208.56 374.25 208.56C372.714 208.56 371.05 209.797 369.258 212.272C367.551 214.747 365.887 218.288 364.266 222.896C362.73 227.419 361.365 232.88 360.17 239.28L359.402 243.632ZM430.904 287.28C425.613 287.28 421.176 286.299 417.592 284.336C414.008 282.373 411.192 279.728 409.144 276.4C407.181 272.987 405.944 269.104 405.432 264.752C404.92 260.315 405.091 255.664 405.944 250.8C406.797 245.936 408.248 241.328 410.296 236.976C412.429 232.539 415.075 228.656 418.232 225.328C421.475 221.915 425.229 219.227 429.496 217.264C433.763 215.301 438.541 214.32 443.832 214.32C449.123 214.32 453.56 215.301 457.144 217.264C460.728 219.227 463.501 221.872 465.464 225.2C467.512 228.528 468.792 232.411 469.304 236.848C469.816 241.2 469.603 245.851 468.664 250.8C467.811 255.664 466.36 260.315 464.312 264.752C462.264 269.104 459.619 272.987 456.376 276.4C453.219 279.728 449.507 282.373 445.24 284.336C440.973 286.299 436.195 287.28 430.904 287.28ZM433.72 271.28C435.768 271.28 437.645 270.725 439.352 269.616C441.144 268.507 442.68 267.013 443.96 265.136C445.325 263.259 446.477 261.083 447.416 258.608C448.355 256.133 449.037 253.531 449.464 250.8C449.976 247.984 450.189 245.339 450.104 242.864C450.104 240.389 449.763 238.256 449.08 236.464C448.483 234.587 447.501 233.093 446.136 231.984C444.771 230.875 443.064 230.32 441.016 230.32C438.968 230.32 437.048 230.875 435.256 231.984C433.549 233.093 432.013 234.587 430.648 236.464C429.368 238.341 428.259 240.517 427.32 242.992C426.381 245.467 425.656 248.069 425.144 250.8C424.717 253.531 424.504 256.133 424.504 258.608C424.589 261.083 424.973 263.259 425.656 265.136C426.339 267.013 427.32 268.507 428.6 269.616C429.965 270.725 431.672 271.28 433.72 271.28ZM523.014 273.328C522.161 275.291 521.009 277.125 519.558 278.832C518.107 280.539 516.401 282.032 514.438 283.312C512.561 284.507 510.427 285.445 508.038 286.128C505.734 286.896 503.259 287.28 500.614 287.28C495.494 287.28 491.483 286.171 488.582 283.952C485.681 281.648 483.59 278.747 482.31 275.248C481.03 271.664 480.39 267.739 480.39 263.472C480.39 259.12 480.774 254.939 481.542 250.928C482.225 246.661 483.334 242.395 484.87 238.128C486.491 233.776 488.625 229.851 491.27 226.352C494.001 222.768 497.371 219.867 501.382 217.648C505.393 215.429 510.171 214.32 515.718 214.32C519.899 214.32 523.27 215.472 525.83 217.776C528.39 219.995 529.926 223.152 530.438 227.248L530.95 223.92C531.547 220.677 532.657 218.288 534.278 216.752C535.985 215.131 538.417 214.32 541.574 214.32C544.817 214.32 546.993 215.131 548.102 216.752C549.211 218.288 549.467 220.677 548.87 223.92L537.99 286C537.051 291.547 535.686 296.453 533.894 300.72C532.187 304.987 529.841 308.571 526.854 311.472C523.953 314.459 520.241 316.72 515.718 318.256C511.281 319.792 505.819 320.56 499.334 320.56C496.774 320.56 494.342 320.304 492.038 319.792C489.734 319.365 487.558 318.683 485.51 317.744C483.462 316.805 481.585 315.611 479.878 314.16C478.171 312.795 476.635 311.131 475.27 309.168C474.673 308.229 474.246 307.205 473.99 306.096C473.734 304.987 473.691 303.835 473.862 302.64C474.033 301.445 474.502 300.251 475.27 299.056C475.953 297.947 476.806 296.923 477.83 295.984C478.854 295.045 480.006 294.277 481.286 293.68C482.651 293.083 483.974 292.784 485.254 292.784C486.107 292.784 486.918 292.912 487.686 293.168C488.539 293.424 489.265 293.893 489.862 294.576C490.801 295.6 491.782 296.624 492.806 297.648C493.83 298.672 494.939 299.568 496.134 300.336C497.414 301.189 498.779 301.872 500.23 302.384C501.681 302.981 503.259 303.28 504.966 303.28C506.929 303.28 508.763 302.896 510.47 302.128C512.177 301.445 513.713 300.336 515.078 298.8C516.443 297.349 517.595 295.557 518.534 293.424C519.473 291.291 520.198 288.816 520.71 286L523.014 273.328ZM510.086 268.08C512.049 268.08 513.883 267.781 515.59 267.184C517.297 266.501 518.833 265.648 520.198 264.624C521.563 263.515 522.673 262.235 523.526 260.784C524.465 259.248 525.105 257.627 525.446 255.92L527.11 245.68C527.451 243.803 527.494 242.053 527.238 240.432C526.982 238.811 526.427 237.403 525.574 236.208C524.806 234.928 523.697 233.947 522.246 233.264C520.881 232.581 519.217 232.24 517.254 232.24C514.694 232.24 512.433 232.837 510.47 234.032C508.593 235.141 506.971 236.592 505.606 238.384C504.326 240.176 503.259 242.181 502.406 244.4C501.638 246.619 501.041 248.837 500.614 251.056C500.273 253.189 500.102 255.28 500.102 257.328C500.187 259.291 500.529 261.083 501.126 262.704C501.809 264.325 502.875 265.648 504.326 266.672C505.777 267.611 507.697 268.08 510.086 268.08Z" fill="black"/>
</mask>
<g mask="url(#mask0_16_2)">
<path d="M-25.0079 79.9264L426.351 -127.048L750.15 234.929L174.518 477.98L-25.0079 79.9264Z" fill="url(#paint0_linear_16_2)"/>
</g>
</g>
<defs>
<linearGradient id="paint0_linear_16_2" x1="435.843" y1="-8.3987" x2="18.5869" y2="182.938" gradientUnits="userSpaceOnUse">
<stop stop-color="#00DBDE"/>
<stop offset="1" stop-color="#FC00FF"/>
</linearGradient>
<clipPath id="clip0_16_2">
<rect width="705" height="336" fill="white"/>
</clipPath>
</defs>
</svg>
